<?xml version="1.0" encoding="UTF-8"?>
<!DOCTYPE svg PUBLIC "-//W3C//DTD SVG 1.1//EN" "http://www.w3.org/Graphics/SVG/1.1/DTD/svg11.dtd">
<svg xmlns="http://www.w3.org/2000/svg" version="1.1" width="512px" height="512px" style="shape-rendering:geometricPrecision; text-rendering:geometricPrecision; image-rendering:optimizeQuality; fill-rule:evenodd; clip-rule:evenodd" xmlns:xlink="http://www.w3.org/1999/xlink">
<g><path style="opacity:0.95" fill="#fefffe" d="M -0.5,276.5 C -0.5,264.833 -0.5,253.167 -0.5,241.5C 2.96282,227.366 6.12949,213.033 9,198.5C 26.6,145.894 62.7667,115.394 117.5,107C 174.311,104.531 215.145,128.698 240,179.5C 249.554,205.308 253.387,231.974 251.5,259.5C 175.5,259.5 99.5,259.5 23.5,259.5C 21.9649,290.033 29.4649,318.033 46,343.5C 71.6558,376.172 105.156,389.006 146.5,382C 181.434,377.382 205.6,358.882 219,326.5C 220.94,320.013 223.273,313.679 226,307.5C 232.302,300.55 239.802,298.883 248.5,302.5C 242.832,343.963 221.499,374.13 184.5,393C 146.378,408.566 108.378,408.233 70.5,392C 34.3344,373.8 12.501,344.634 5,304.5C 3.47113,294.97 1.63779,285.636 -0.5,276.5 Z M 116.5,128.5 C 173.699,126.52 209.865,153.187 225,208.5C 227.526,218.684 228.693,229.017 228.5,239.5C 160.5,239.5 92.5,239.5 24.5,239.5C 25.4045,198.511 42.4045,166.345 75.5,143C 88.3708,135.544 102.037,130.711 116.5,128.5 Z"/></g>
<g><path style="opacity:0.941" fill="#fefffe" d="M 511.5,394.5 C 511.5,395.167 511.5,395.833 511.5,396.5C 496.795,401.366 484.295,398.032 474,386.5C 445.387,346.22 416.387,306.22 387,266.5C 357.281,305.885 327.948,345.552 299,385.5C 289.435,397.188 277.269,401.188 262.5,397.5C 262.351,396.448 262.517,395.448 263,394.5C 299.41,346.012 335.577,297.345 371.5,248.5C 337.691,204.191 303.691,160.024 269.5,116C 284.131,110.7 296.965,113.533 308,124.5C 334.333,160.167 360.667,195.833 387,231.5C 414.449,194.383 442.282,157.55 470.5,121C 480.304,113.005 490.971,111.505 502.5,116.5C 471.152,158.527 439.318,200.193 407,241.5C 403.335,248.518 404.335,254.851 410,260.5C 443.611,305.414 477.444,350.081 511.5,394.5 Z"/></g>
</svg>
